<?xml version="1.0" encoding="utf-8"?>
<!-- Generator: Adobe Illustrator 22.1.0, SVG Export Plug-In . SVG Version: 6.00 Build 0)  -->
<svg version="1.1" id="Capa_1" xmlns="http://www.w3.org/2000/svg" xmlns:xlink="http://www.w3.org/1999/xlink" x="0px" y="0px"
	 width="167.9px" height="43.5px" viewBox="0 0 167.9 43.5" style="enable-background:new 0 0 167.9 43.5;" xml:space="preserve">
<style type="text/css">
	.st0{fill:#B92C32;}
	.st1{fill:#628A37;}
	.st2{fill:#4A3024;}
</style>
<g id="Capa_2_1_">
	<g>
		<g>
			<rect x="135" y="23" class="st0" width="7.2" height="5.7"/>
			<rect x="135" y="29.9" class="st0" width="15.8" height="5.6"/>
			<rect x="135" y="16.4" class="st0" width="15.8" height="5.6"/>
			<rect x="152" y="29.9" class="st0" width="15.8" height="5.6"/>
			<rect x="143.5" y="23.1" class="st0" width="15.8" height="5.6"/>
		</g>
		<g>
			<rect x="25.6" y="23" class="st0" width="7.2" height="5.7"/>
			<rect x="17.1" y="29.9" class="st0" width="15.8" height="5.6"/>
			<rect x="17.1" y="16.4" class="st0" width="15.8" height="5.6"/>
			<rect y="29.9" class="st0" width="15.8" height="5.6"/>
			<rect x="8.5" y="23.1" class="st0" width="15.8" height="5.6"/>
		</g>
		<g id="PgTL3D_1_">
			<g>
				<g>
					<path class="st0" d="M68.9,7c1.2,0,2.4,0,3.6,0c0.4,0,0.9,0,1.3,0.1c0.9,0.1,1.6,0.6,1.7,1.3c0.1,0.9-0.2,1.5-1.4,1.9
						c0.6,0.8,1.2,1.5,1.8,2.3c-0.5,0-1,0-1.5,0c-0.1,0-0.3-0.1-0.3-0.2c-0.5-0.6-0.9-1.2-1.4-1.7c-0.1-0.2-0.3-0.2-0.6-0.2
						c-0.6,0-1.1,0-1.8,0c0,0.7,0,1.4,0,2.2c-0.5,0-1,0-1.5,0C68.9,10.7,68.9,8.9,68.9,7z M70.4,9.3c1,0,2,0,2.9,0
						c0.5,0,0.7-0.2,0.7-0.6c0-0.4-0.2-0.6-0.7-0.7c-1,0-2,0-3,0C70.4,8.5,70.4,8.9,70.4,9.3z"/>
					<path class="st0" d="M57.5,12.5c0-1.8,0-3.6,0-5.5h0.1c1.3,0,2.6,0,3.9,0.1c1.8,0.1,3.1,1.2,3.2,2.5c0.1,1.6-1,2.7-3,2.9
						C60.4,12.6,59,12.5,57.5,12.5z M59.1,11.5c0.7,0,1.4,0,2.1,0c1.2,0,2-0.6,2.1-1.4c0.1-1-0.5-1.8-1.6-1.9
						c-0.8-0.1-1.6-0.1-2.5-0.1C59.1,9.2,59.1,10.4,59.1,11.5z"/>
					<path class="st0" d="M132.1,7.7c-0.3,0.3-0.5,0.6-0.7,0.8c-0.7-0.2-1.4-0.4-2.1-0.5c-0.5-0.1-1.1,0-1.7,0
						c-0.3,0-0.6,0.2-0.5,0.5c0,0.3,0.3,0.3,0.6,0.4c0.7,0.1,1.4,0.1,2.1,0.2c0.8,0.1,1.6,0.2,2.1,0.7c1,0.8,0.6,2.1-0.8,2.6
						c-0.7,0.3-1.6,0.4-2.4,0.3c-1.1,0-2.2-0.2-3.1-0.7c-0.2-0.1-0.3-0.2-0.5-0.3c0.3-0.3,0.6-0.6,0.9-0.9c0.2,0.1,0.4,0.2,0.5,0.3
						c1,0.5,2.1,0.7,3.4,0.5c0.2,0,0.4-0.1,0.6-0.2c0.6-0.3,0.6-0.9-0.1-1.1c-0.5-0.1-1-0.1-1.5-0.2c-0.6-0.1-1.3-0.1-1.9-0.2
						c-0.7-0.1-1.3-0.4-1.4-1c-0.1-0.7,0.2-1.3,1.1-1.6c0.8-0.4,1.8-0.4,2.7-0.3C130.3,7,131.2,7.3,132.1,7.7z"/>
					<path class="st0" d="M117.5,6.9c2.2,0,3.9,1.3,3.9,2.9c0,1.7-1.7,2.9-3.9,2.9c-2.2,0-3.8-1.3-3.8-2.9
						C113.6,8.1,115.3,6.9,117.5,6.9z M117.5,8c-1.4,0-2.4,0.8-2.3,1.9c0,1.1,1,1.8,2.4,1.8c1.3,0,2.3-0.8,2.3-1.8
						C119.8,8.8,118.8,8,117.5,8z"/>
					<path class="st0" d="M45.6,12.6c1-1.5,1.9-2.9,2.8-4.3C48.6,8,48.8,7.7,49,7.5C49.3,7,49.6,6.9,50.3,7c0.1,0,0.2,0.1,0.2,0.2
						c1.2,1.8,2.3,3.5,3.5,5.3v0.1c-0.5,0-0.9,0-1.4,0c-0.1,0-0.2-0.1-0.3-0.2c-0.2-0.3-0.4-0.7-0.7-1c-0.1-0.1-0.3-0.2-0.4-0.2
						c-0.9,0-1.9,0-2.8,0c-0.1,0-0.3,0.1-0.4,0.2c-0.2,0.3-0.4,0.6-0.6,0.9c-0.1,0.1-0.3,0.2-0.5,0.2C46.5,12.6,46.1,12.6,45.6,12.6
						z M50.8,10.1c-0.3-0.5-0.6-1-1-1.5c-0.3,0.5-0.6,1-1,1.5C49.5,10.1,50.2,10.1,50.8,10.1z"/>
					<path class="st0" d="M37.1,11.5c1.5,0,3,0,4.5,0c0,0.4,0,0.7,0,1c-2,0-3.9,0-5.9,0c0-1.8,0-3.7,0-5.5c0.5,0,0.9,0,1.5,0
						C37.1,8.5,37.1,10,37.1,11.5z"/>
					<path class="st0" d="M92,7c0.5,0,1,0,1.5,0c0,1.5,0,3,0,4.5c1.5,0,3,0,4.5,0c0,0.4,0,0.7,0,1.1c-2,0-3.9,0-5.9,0
						C92,10.7,92,8.9,92,7z"/>
					<path class="st0" d="M103.2,12.6c0-1.9,0-3.7,0-5.5c0.5,0,1,0,1.5,0c0,1.5,0,3,0,4.5c1.5,0,3,0,4.5,0c0,0.4,0,0.7,0,1
						C107.2,12.6,105.2,12.6,103.2,12.6z"/>
					<path class="st0" d="M82.9,7c0.5,0,1,0,1.5,0c0,1.9,0,3.7,0,5.6c-0.5,0-1,0-1.5,0C82.9,10.7,82.9,8.9,82.9,7z"/>
				</g>
			</g>
		</g>
		<g>
			<path class="st0" d="M39.3,41.9h1.1V42c0,0.6-0.1,1-0.4,1.2c-0.3,0.2-0.9,0.3-1.9,0.3c-1.1,0-1.8-0.1-2.1-0.4
				c-0.3-0.3-0.4-1-0.4-2.3c0-0.7,0.2-1.2,0.5-1.4s1.1-0.3,2.2-0.3c0.8,0,1.4,0.1,1.6,0.3c0.3,0.2,0.4,0.6,0.4,1.1v0.1h-1.1v-0.1
				c0-0.3-0.1-0.5-0.2-0.5c-0.1-0.1-0.5-0.1-1-0.1c-0.7,0-1.1,0.1-1.2,0.2c-0.1,0.1-0.2,0.5-0.2,1.1c0,0.8,0.1,1.3,0.2,1.5
				c0.1,0.2,0.5,0.2,1.2,0.2c0.5,0,0.9,0,1-0.1c0.2-0.1,0.2-0.3,0.2-0.6L39.3,41.9z"/>
			<path class="st0" d="M44.5,42.6H42l-0.4,0.8h-1.1l1.9-4.4H44l1.9,4.4h-1.1L44.5,42.6z M44.3,42l-1-2.3l-1,2.3H44.3z"/>
			<path class="st0" d="M47.6,39.1v3.6h2.7v0.7h-3.7V39h1V39.1z"/>
			<path class="st0" d="M51.9,39.1v4.4h-1.1v-4.4H51.9z"/>
			<path class="st0" d="M52.9,43.5v-4.4h2.8c0.8,0,1.4,0.1,1.7,0.4c0.3,0.3,0.5,0.7,0.5,1.4c0,1.1-0.1,1.8-0.4,2.1
				c-0.3,0.3-0.8,0.5-1.7,0.5H52.9z M53.9,42.8h1.5c0.5,0,0.9-0.1,1-0.3c0.2-0.2,0.2-0.6,0.2-1.2c0-0.6-0.1-1.1-0.2-1.2
				c-0.1-0.2-0.5-0.3-1-0.3h-1.6L53.9,42.8L53.9,42.8z"/>
			<path class="st0" d="M62,42.6h-2.5l-0.4,0.8H58l1.9-4.4h1.6l1.9,4.4h-1.1L62,42.6z M61.8,42l-1-2.3l-1,2.3H61.8z"/>
			<path class="st0" d="M64,43.5v-4.4h2.8c0.8,0,1.4,0.1,1.7,0.4c0.3,0.3,0.5,0.7,0.5,1.4c0,1.1-0.1,1.8-0.4,2.1s-0.8,0.5-1.7,0.5
				H64z M65.1,42.8h1.5c0.5,0,0.9-0.1,1-0.3c0.2-0.2,0.2-0.6,0.2-1.2c0-0.6-0.1-1.1-0.2-1.2c-0.1-0.2-0.5-0.3-1-0.3H65L65.1,42.8
				L65.1,42.8z"/>
			<path class="st0" d="M77.2,42.9l-0.4,0.5l-0.5-0.3c-0.4,0.3-1,0.4-2,0.4c-1.1,0-1.8-0.1-2.1-0.4c-0.3-0.3-0.5-0.8-0.5-1.7
				c0-1,0.1-1.7,0.4-2s1-0.4,2.1-0.4s1.8,0.1,2.1,0.4c0.3,0.3,0.5,0.9,0.5,1.8c0,0.7,0,1.1-0.1,1.3L77.2,42.9z M73.9,41.9l0.5-0.5
				l1.2,0.6c0-0.2,0-0.3,0-0.3v-0.4v-0.5c0-0.4-0.1-0.7-0.3-0.8c-0.2-0.1-0.6-0.2-1.2-0.2c-0.7,0-1.1,0.1-1.3,0.2
				c-0.1,0.1-0.2,0.6-0.2,1.5c0,0.6,0.1,1,0.2,1.1s0.6,0.2,1.4,0.2c0.4,0,0.7-0.1,0.9-0.2L73.9,41.9z"/>
			<path class="st0" d="M81.2,39.1h1.1V42c0,0.6-0.2,1-0.5,1.2s-0.9,0.3-1.9,0.3s-1.6-0.1-1.9-0.3s-0.5-0.6-0.5-1.2v-3h1.1v3
				c0,0.3,0.1,0.5,0.2,0.6c0.2,0.1,0.5,0.1,1.1,0.1s0.9,0,1.1-0.1c0.1-0.1,0.2-0.3,0.2-0.6L81.2,39.1L81.2,39.1z"/>
			<path class="st0" d="M84.3,39.8v1.1H87v0.6h-2.7v1.2h2.8v0.7h-3.9V39h3.9v0.7h-2.8V39.8z"/>
			<path class="st0" d="M94.3,40.4h-1.1v-0.1c0-0.2-0.1-0.4-0.2-0.5s-0.4-0.1-0.8-0.1c-0.5,0-0.8,0-1,0.1S91,40,91,40.3
				s0.1,0.4,0.2,0.5s0.6,0.1,1.3,0.1c0.8,0,1.4,0.1,1.6,0.3c0.2,0.1,0.4,0.5,0.4,0.9c0,0.6-0.1,1-0.4,1.1c-0.3,0.2-0.9,0.3-1.9,0.3
				c-0.9,0-1.5-0.1-1.8-0.2c-0.3-0.2-0.4-0.5-0.4-1v-0.2h1v0.1c0,0.3,0.1,0.5,0.2,0.6s0.5,0.1,1.1,0.1c0.5,0,0.8,0,0.9-0.1
				s0.2-0.3,0.2-0.5s-0.1-0.4-0.2-0.4c-0.1-0.1-0.3-0.1-0.7-0.1h-0.6c-0.9,0-1.5-0.1-1.7-0.3c-0.3-0.2-0.4-0.5-0.4-1s0.2-0.9,0.5-1
				c0.3-0.2,0.9-0.3,1.8-0.3s1.4,0.1,1.7,0.2c0.3,0.2,0.4,0.5,0.4,0.9L94.3,40.4L94.3,40.4z"/>
			<path class="st0" d="M96.1,39.8v1.1h2.7v0.6h-2.7v1.2H99v0.7h-4V39h3.9v0.7h-2.8V39.8z"/>
			<path class="st0" d="M103,39.1v4.4h-1.1v-4.4H103z"/>
			<path class="st0" d="M110.6,39.1v4.4h-1.1v-2.4c0-0.2,0-0.4,0-0.6v-0.3v-0.3l0,0l-0.1,0.3l-0.1,0.3c-0.1,0.3-0.2,0.5-0.3,0.6
				l-1.2,2.5h-1l-1.3-2.4c-0.1-0.1-0.2-0.3-0.3-0.6l-0.1-0.3L105,40l0,0v0.3v0.3c0,0.2,0,0.5,0,0.6v2.4h-1v-4.4h1.8l1,2
				c0.1,0.1,0.2,0.3,0.3,0.6l0.1,0.3l0.1,0.3l0,0l0.1-0.3l0.1-0.3c0.1-0.3,0.2-0.5,0.3-0.6l1-2L110.6,39.1L110.6,39.1z"/>
			<path class="st0" d="M111.6,43.5v-4.4h2.3h0.3c0.8,0,1.3,0.1,1.6,0.3c0.3,0.2,0.4,0.6,0.4,1.2c0,0.6-0.1,1-0.4,1.2
				s-0.8,0.3-1.5,0.3h-0.2h-1.3v1.4H111.6z M112.7,41.3h1.2c0.5,0,0.8,0,0.9-0.1s0.2-0.3,0.2-0.6c0-0.4-0.1-0.6-0.2-0.7
				c-0.1-0.1-0.4-0.1-0.9-0.1h-1.3v1.5H112.7z"/>
			<path class="st0" d="M119.2,39c1,0,1.7,0.1,2,0.4c0.3,0.3,0.4,0.9,0.4,1.8c0,1-0.1,1.6-0.4,1.9c-0.3,0.3-1,0.4-2.2,0.4
				c-1,0-1.7-0.1-2-0.4c-0.3-0.3-0.5-0.8-0.5-1.7c0-1,0.1-1.7,0.4-2C117.3,39.2,118.1,39,119.2,39z M119.1,39.8
				c-0.7,0-1.1,0.1-1.3,0.2c-0.1,0.1-0.2,0.6-0.2,1.5c0,0.6,0.1,1,0.2,1.1s0.6,0.2,1.3,0.2c0.7,0,1.1-0.1,1.2-0.2
				c0.1-0.1,0.2-0.6,0.2-1.3s-0.1-1.2-0.2-1.3C120.2,39.8,119.8,39.8,119.1,39.8z"/>
			<path class="st0" d="M127.7,39.1v4.4h-1.8l-1.6-2.4c-0.1-0.1-0.2-0.3-0.4-0.6l-0.2-0.3l-0.2-0.3l0,0v0.3v0.3v0.6v2.5h-1.1v-4.4
				h1.8l1.5,2.2c0.1,0.2,0.3,0.4,0.5,0.7l0.2,0.4l0.2,0.4l0,0v-0.3v-0.3v-0.6v-2.5h1.1V39.1z"/>
			<path class="st0" d="M129.6,39.8v1.1h2.7v0.6h-2.7v1.2h2.8v0.7h-3.9V39h3.9v0.7h-2.8V39.8z"/>
		</g>
		<path class="st1" d="M142.4,8.5c0,0,1.8,2.1,4.1,3.1c2.2,1,3.7,1.3,4.9,1.4c0,0-3.1,0.3-5.2-0.7C143.6,11.1,142.4,8.5,142.4,8.5z"
			/>
		<path class="st1" d="M147,0.5c0,0,1.8-0.3,3.8,0.7c2.3,1.2,5.4,3,7.4,3.6c2,0.5,3,0.2,3,0.2s-2.9-2.5-5.9-3.8
			C150.6-0.9,147,0.5,147,0.5z"/>
		<g>
			<path class="st1" d="M151.6,6.8c-0.1,0-0.3,0.1-0.4,0.2c-0.2,0.2-0.3,0.5-0.3,0.7c0,0.3,0.1,0.5,0.4,0.5c0.1,0,0.3-0.1,0.3-0.1
				c0.2-0.2,0.3-0.5,0.3-0.7C152,7,151.9,6.8,151.6,6.8z"/>
			<path class="st1" d="M148.3,5.3c0.4,0,0.5-0.9,0.5-1.2c0-0.2,0-0.4-0.2-0.4c-0.3,0-0.5,0.8-0.5,1.2C148.1,5,148.1,5.3,148.3,5.3z
				"/>
			<path class="st1" d="M150.2,4.4c0.2,0,0.3-0.4,0.3-0.6c0-0.1,0-0.2-0.2-0.2S150,4,150,4.2C150,4.3,150,4.4,150.2,4.4z"/>
			<path class="st1" d="M146.4,5.3c0.4,0,0.5-0.9,0.5-1.2c0-0.2,0-0.4-0.2-0.4c-0.3,0-0.5,0.8-0.5,1.2C146.2,5,146.2,5.3,146.4,5.3z
				"/>
			<path class="st1" d="M148.1,6.8c-0.1,0-0.3,0.1-0.4,0.2c-0.2,0.2-0.3,0.5-0.3,0.7c0,0.3,0.1,0.5,0.4,0.5c0.1,0,0.3-0.1,0.3-0.1
				c0.2-0.2,0.3-0.5,0.3-0.7C148.5,7,148.4,6.8,148.1,6.8z"/>
			<path class="st1" d="M151.5,5.1c0,0.1,0.1,0.2,0.2,0.2c0.2,0,0.3-0.4,0.3-0.6c0-0.1,0-0.2-0.2-0.2S151.5,4.9,151.5,5.1z"/>
			<path class="st1" d="M156.3,4.7c-3.7-1.8-6.6-4.1-9.2-3.9c-5.1,0.4-4.7,6.9-4.7,6.9s4,4.9,10.6,4.9c5.3,0,8.5-7.3,8.5-7.3
				S159.5,6.2,156.3,4.7z M152.4,4.8c0,0.5-0.3,0.9-0.8,0.9c-0.3,0-0.5-0.2-0.5-0.6c0-0.5,0.3-0.9,0.8-0.9
				C152.2,4.2,152.4,4.5,152.4,4.8z M152,3.3l-1.7,2.4H150l1.7-2.4C151.7,3.3,152,3.3,152,3.3z M150.4,3.3c0.3,0,0.5,0.2,0.5,0.5
				c0,0.5-0.3,0.9-0.7,0.9c-0.3,0-0.5-0.2-0.5-0.6C149.6,3.7,149.9,3.3,150.4,3.3z M148.7,3.3c0.5,0,0.7,0.4,0.7,0.8
				c0,0.7-0.4,1.6-1.1,1.6c-0.5,0-0.7-0.4-0.7-0.8C147.6,4.1,148,3.3,148.7,3.3z M146.7,3.3c0.5,0,0.7,0.4,0.7,0.8
				c0,0.7-0.3,1.6-1.1,1.6c-0.5,0-0.7-0.4-0.7-0.8C145.7,4.1,146,3.3,146.7,3.3z M144.7,3.3h0.4l-0.4,2.3h-0.5l0.3-1.8l0,0L144.1,4
				V3.6L144.7,3.3z M145.2,6.8h-0.8l-0.1,0.4h0.7l0,0.4h-0.7l-0.1,0.5h0.8l-0.1,0.4h-1.3l0.4-2.1h1.2L145.2,6.8z M146.3,8.1
				c0.1,0,0.3,0,0.4-0.1v0.4c-0.1,0-0.3,0.1-0.5,0.1c-0.5,0-0.9-0.3-0.9-0.9c0-0.5,0.2-0.8,0.5-1c0.2-0.1,0.5-0.2,0.8-0.2
				c0.2,0,0.4,0.1,0.4,0.1l-0.1,0.4c-0.1,0-0.2-0.1-0.4-0.1S146.2,6.9,146,7s-0.3,0.4-0.3,0.7C145.8,7.9,146,8.1,146.3,8.1z
				 M148.6,8.2c-0.2,0.2-0.5,0.3-0.8,0.3c-0.5,0-0.8-0.4-0.8-0.9c0-0.4,0.1-0.7,0.4-1c0.2-0.2,0.5-0.3,0.8-0.3
				c0.5,0,0.8,0.4,0.8,0.9C149,7.6,148.8,8,148.6,8.2z M150.3,8.5h-1.2l0.4-2.1h0.4l-0.3,1.7h0.8L150.3,8.5z M152.1,8.2
				c-0.2,0.2-0.5,0.3-0.8,0.3c-0.5,0-0.8-0.4-0.8-0.9c0-0.4,0.1-0.7,0.4-1c0.2-0.2,0.5-0.3,0.8-0.3c0.5,0,0.8,0.4,0.8,0.9
				C152.5,7.6,152.4,8,152.1,8.2z M153.7,8.1c0.1,0,0.2,0,0.2,0l0.1-0.4h-0.3l0.1-0.4h0.7l-0.2,1.1c-0.2,0.1-0.4,0.1-0.7,0.1
				s-0.5-0.1-0.7-0.2c-0.2-0.1-0.3-0.4-0.3-0.6c0-0.4,0.2-0.7,0.4-0.9c0.2-0.2,0.6-0.3,0.9-0.3c0.3,0,0.5,0.1,0.5,0.1L154.3,7
				c-0.1,0-0.3-0.1-0.4-0.1c-0.2,0-0.4,0.1-0.5,0.2c-0.2,0.1-0.3,0.4-0.3,0.7C153.2,8,153.4,8.1,153.7,8.1z M155.1,8.5h-0.4l0.4-2.1
				h0.4L155.1,8.5z M156.6,8.1c0.1,0,0.3,0,0.4-0.1v0.4c-0.1,0-0.3,0.1-0.5,0.1c-0.5,0-0.9-0.3-0.9-0.9c0-0.5,0.2-0.8,0.5-1
				c0.2-0.1,0.5-0.2,0.8-0.2c0.2,0,0.4,0.1,0.4,0.1l-0.1,0.4c-0.1,0-0.2-0.1-0.4-0.1s-0.3,0.1-0.5,0.2S156,7.4,156,7.7
				C156.1,7.9,156.2,8.1,156.6,8.1z M158.9,8.2c-0.2,0.2-0.5,0.3-0.8,0.3c-0.5,0-0.8-0.4-0.8-0.9c0-0.4,0.1-0.7,0.4-1
				c0.2-0.2,0.5-0.3,0.8-0.3c0.5,0,0.8,0.4,0.8,0.9C159.2,7.6,159.1,8,158.9,8.2z"/>
			<path class="st1" d="M158.4,6.8c-0.1,0-0.3,0.1-0.4,0.2c-0.2,0.2-0.3,0.5-0.3,0.7c0,0.3,0.1,0.5,0.4,0.5c0.1,0,0.3-0.1,0.3-0.1
				c0.2-0.2,0.3-0.5,0.3-0.7C158.8,7,158.7,6.8,158.4,6.8z"/>
		</g>
		<g>
			<g>
				<path class="st2" d="M82.5,16.3L82.5,16.3L82.5,16.3v19.5c0,0,4.3,0,4.7,0c1.1-0.1,1.6-1.2,1.6-1.9c0-1.7,0-5.1,0-5.1
					s2.5,0,3.7,0c0.6,0,0.9,0.1,1.2,0.4c1.9,1.8,3.6,3.7,5.5,5.5c0.9,0.8,2,1.1,3.6,1.1h4.8c0,0-7.2-7.2-7.3-7.3
					c0.4-0.1,0.6-0.1,0.9-0.2c2.6-0.6,4.4-1.6,5-3.2c0.4-1,0.6-2.1,0.5-3.1c-0.2-3-2.7-5.3-7.9-5.6L82.5,16.3L82.5,16.3z M96.9,24.8
					c-3,0-7.4,0-8.1,0c0-0.8,0-2.1,0-3.1c0-1.1,0.2-1.4,1.4-1.4c2,0,4.1,0,6.1,0c3,0,3.8,0.8,3.8,2.4
					C100.1,24.1,98.8,24.8,96.9,24.8z"/>
			</g>
			<g>
				<path class="st2" d="M115.6,18.2c0-1.1-0.4-1.9-1.7-1.9h-4.6v19.5h4.5c1.4,0,1.8-1.1,1.8-1.9C115.6,33.9,115.6,18.2,115.6,18.2z
					"/>
				<path class="st2" d="M125.5,35.8c0,0-6.1-5-8.7-7c-2.5-2-4-3.2,0-6.1c2.4-2,3.8-3.2,6.4-5.2c0.8-0.6,2.4-1.1,3.7-1.1
					s5.6,0,5.6,0s-8.3,6.9-10.2,8.3c-1.2,0.9-1.2,1.2,0,2.2c3.2,2.5,9,7.2,9.3,7.5c0.5,0.4,0.3,1.5-0.6,1.5c-0.8,0-1.4,0-1.4,0
					L125.5,35.8z"/>
			</g>
			<path class="st2" d="M74.4,19.1c-0.9-2.4-3.8-2.9-6.6-2.9c-2.8,0-6,0.3-7.1,3.3c-1.6,4.3-3.2,8.2-4.9,12.5
				c-0.2,0.6-0.5,1.4-0.7,1.9c-0.2,0.8,0.1,1.7,1,1.7c0.1,0,4.7,0,4.7,0s1.4-3.5,1.7-4.5c3.7,0,6.9,0,10.5,0
				c0.4,1.2,0.8,2.1,1.3,3.2c0.2,0.5,0.6,1.2,1.3,1.2c1.1,0.1,4.3,0,5.4,0L74.4,19.1z M63.8,27.4c0.3-0.9,0.6-1.5,0.9-2.4
				c0.5-1.3,1-2.7,1.5-4c0.2-0.4,0.3-0.9,0.8-1.1c0.9-0.4,1.8,0,2.1,0.7c0.5,1.2,0.9,2.4,1.4,3.6c0.4,1.1,0.8,2,1.2,3.1
				C68.9,27.4,66.6,27.4,63.8,27.4z"/>
			<path class="st2" d="M45.9,30.6c-0.2,0-0.9,0-1.1,0h-1.3c-0.9,0-1.5-0.8-1.5-1.7v-5.1c0-0.1,0-0.1,0-0.2c0,0,0-4.6,0-5.4
				c0-1.2-0.5-1.9-2-1.9c-1.8,0-4.3,0-4.3,0v16.2c0,1.9,1.5,3.3,3.4,3.3h11.1h3.4c0,0,0-2.3,0-3.6c0-1-0.7-1.6-1.5-1.6
				C51.1,30.6,45.9,30.6,45.9,30.6z"/>
		</g>
	</g>
</g>
</svg>
