<?xml version="1.0" encoding="utf-8"?>
<!-- Generator: Adobe Illustrator 22.1.0, SVG Export Plug-In . SVG Version: 6.00 Build 0)  -->
<svg version="1.1" id="Capa_1" xmlns="http://www.w3.org/2000/svg" xmlns:xlink="http://www.w3.org/1999/xlink" x="0px" y="0px"
	 width="25.8px" height="24.6px" viewBox="0 0 25.8 24.6" style="enable-background:new 0 0 25.8 24.6;" xml:space="preserve">
<style type="text/css">
	.st0{fill:#730000;}
	.st1{fill:#F6E135;}
</style>
<g id="Capa_96">
	<g>
		<path class="st0" d="M0.9,0C0.4,0,0,0.4,0,0.9v18.2C0,19.6,0.4,20,0.9,20h20.3l4.6,4.6V0.9c0-0.5-0.4-0.9-0.9-0.9H0.9z"/>
		<path class="st1" d="M13.2,6.3c-0.3,0-0.6-0.3-0.6-0.6s0.3-0.6,0.6-0.6h6.9c0.3,0,0.6,0.3,0.6,0.6s-0.3,0.6-0.6,0.6H13.2L13.2,6.3
			z"/>
		<path class="st1" d="M5.7,10.3c-0.3,0-0.6-0.3-0.6-0.6s0.3-0.6,0.6-0.6H20c0.3,0,0.6,0.3,0.6,0.6s-0.3,0.6-0.6,0.6H5.7L5.7,10.3z"
			/>
		<path class="st1" d="M5.7,14.3c-0.3,0-0.6-0.3-0.6-0.6s0.3-0.6,0.6-0.6H20c0.3,0,0.6,0.3,0.6,0.6s-0.3,0.6-0.6,0.6H5.7L5.7,14.3z"
			/>
	</g>
</g>
</svg>
