<?xml version="1.0" encoding="utf-8"?>
<!-- Generator: Adobe Illustrator 22.1.0, SVG Export Plug-In . SVG Version: 6.00 Build 0)  -->
<svg version="1.1" id="Capa_1" xmlns="http://www.w3.org/2000/svg" xmlns:xlink="http://www.w3.org/1999/xlink" x="0px" y="0px"
	 width="16.5px" height="11.5px" viewBox="0 0 16.5 11.5" style="enable-background:new 0 0 16.5 11.5;" xml:space="preserve">
<style type="text/css">
	.st0{fill:#FFDE01;}
</style>
<g id="Capa_94">
	<path class="st0" d="M16.3,1.8c0-0.1,0-0.1,0-0.2V1.5c-0.2-0.6-0.8-1.1-1.5-1.1h0.1c0,0-2.8-0.4-6.5-0.4C4.5,0,1.7,0.4,1.7,0.4h0.1
		c-0.7,0-1.3,0.5-1.5,1.1v0.1c0,0.1,0,0.1,0,0.2C0.2,2.5,0,4,0,5.7s0.2,3.2,0.3,3.9c0,0.1,0,0.1,0,0.2v0.1C0.5,10.5,1.1,11,1.8,11
		H1.7c0,0,2.8,0.4,6.5,0.4s6.5-0.4,6.5-0.4h-0.1c0.7,0,1.3-0.5,1.5-1.1V9.8c0-0.1,0-0.1,0-0.2c0.1-0.7,0.3-2.2,0.3-3.9
		C16.5,4,16.4,2.5,16.3,1.8z M10.7,6.1L7.4,8.5C7.3,8.6,7.2,8.6,7.1,8.6s-0.1,0-0.2,0C6.8,8.5,6.7,8.3,6.7,8.2V3.3
		C6.7,3.2,6.8,3,6.9,3C7,2.9,7.2,2.9,7.3,3l3.3,2.4c0.1,0.1,0.2,0.2,0.2,0.3C10.9,5.9,10.8,6,10.7,6.1z"/>
</g>
</svg>
